#!OML:ASF E:\emotionWalksFemale\Project 1\Capture day 1\Session 1\Female1.ASF
:FULLY-SPECIFIED
:DEGREES
1528
root 10.7684 15.0688 -5.69283 -13.323 -16.3363 371.488
lowerback 1.57791 -5.62024 -1.24902
upperback -5.73392 -7.59851 0.121355
thorax -6.67182 -3.69299 1.36398
lowerneck -4.62458 13.3607 4.12343
upperneck 28.1339 18.6235 -0.680989
head 10.1963 8.99285 1.00716
rclavicle 2.14687e-014 2.70347e-014
rhumerus -46.8081 -13.5386 -59.7051
rradius 34.667
rwrist 1.15005
rhand 166.126 -71.5971
rfingers 7.12502
rthumb -167.749 -41.9759
lclavicle 2.14687e-014 2.70347e-014
lhumerus -41.8534 25.6724 56.0318
lradius 25.3335
lwrist -35.6124
lhand -4.80559 -29.0148
lfingers 7.12502
lthumb 20.9802 -0.129501
rfemur -14.4548 2.05088 9.70279
rtibia 80.4676
rfoot -5.83096 -12.3836
rtoes -4.36044
lfemur 0.36311 4.20901 -40.2926
ltibia 21.8127
lfoot -18.9319 8.74368
ltoes -12.8847
1529
root 10.7655 15.0605 -5.54398 -13.3933 -15.9073 371.493
lowerback 1.74157 -5.82163 -1.65415
upperback -5.73021 -7.88607 0.213894
thorax -6.68787 -3.80958 1.71322
lowerneck -4.48202 13.283 3.92076
upperneck 27.9117 18.5517 -0.784354
head 10.0749 8.93875 0.969122
rclavicle -4.77083e-015 2.06736e-014
rhumerus -47.8126 -13.9745 -57.8178
rradius 33.543
rwrist 2.80503
rhand 161.891 -69.791
rfingers 7.12502
rthumb -171.835 -39.9688
lclavicle -4.77083e-015 2.06736e-014
lhumerus -41.7237 26.0323 55.9609
lradius 25.6435
lwrist -35.6206
lhand -7.99714 -29.6636
lfingers 7.12502
lthumb 17.9116 -0.468449
rfemur -15.6018 2.54525 10.2106
rtibia 79.8387
rfoot -7.68537 -13.2877
rtoes -3.64537
lfemur 1.03706 3.95477 -40.5512
ltibia 22.0429
lfoot -19.6093 9.04589
ltoes -16.0211
1530
root 10.761 15.0469 -5.40064 -13.1424 -15.5446 371.241
lowerback 1.77935 -5.94929 -1.77586
upperback -5.79079 -8.05907 0.320004
thorax -6.73683 -3.88384 1.90709
lowerneck -4.66885 13.1793 3.8754
upperneck 28.0019 18.4093 -0.778011
head 10.1326 8.86101 0.980627
rclavicle -1.03368e-013 -6.67916e-014
rhumerus -48.9904 -14.6804 -55.8778
rradius 32.6089
rwrist 4.72801
rhand 162.526 -69.4249
rfingers 7.12502
rthumb -171.222 -39.6275
lclavicle -1.03368e-013 -6.67916e-014
lhumerus -41.3763 25.6516 56.3921
lradius 26.233
lwrist -34.8984
lhand -9.53327 -29.5662
lfingers 7.12502
lthumb 16.4331 -0.242266
rfemur -17.0208 2.97717 10.9959
rtibia 78.9499
rfoot -8.95653 -13.9357
rtoes -4.44691
lfemur 1.43742 3.43209 -40.5726
ltibia 22.2203
lfoot -20.1414 9.37586
ltoes -18.9232
1531
root 10.7536 15.0404 -5.26327 -12.7405 -15.1366 370.993
lowerback 1.69486 -6.08376 -1.95488
upperback -5.89791 -8.24365 0.409407
thorax -6.75819 -3.96219 2.10377
lowerneck -4.73257 13.0381 3.95973
upperneck 27.9994 18.2031 -0.822898
head 10.1508 8.76615 0.936655
rclavicle -1.59028e-015 1.59028e-014
rhumerus -50.2812 -15.275 -53.9229
rradius 31.8669
rwrist 6.83409
rhand 163.817 -70.4226
rfingers 7.12502
rthumb -169.976 -40.6813
lclavicle -1.59028e-015 1.59028e-014
lhumerus -40.8764 25.0952 56.8622
lradius 26.6245
lwrist -34.0078
lhand -11.0791 -29.9249
lfingers 7.12502
lthumb 14.9442 -0.484028
rfemur -18.5141 3.45187 11.7662
rtibia 77.8168
rfoot -10.1004 -14.7446
rtoes -5.26465
lfemur 1.71115 2.84387 -40.5676
ltibia 22.3955
lfoot -20.795 9.42962
ltoes -20.2909
1532
root 10.7431 15.0427 -5.1291 -12.3568 -14.6172 370.789
lowerback 1.62998 -6.31468 -2.34894
upperback -6.01527 -8.56377 0.584856
thorax -6.75009 -4.09369 2.51332
lowerneck -4.69009 12.9953 3.72813
upperneck 27.8966 18.0888 -0.554154
head 10.0479 8.72554 1.03215
rclavicle 8.90555e-014 -3.81667e-014
rhumerus -51.4486 -14.9452 -52.3719
rradius 31.4867
rwrist 8.15439
rhand 164.307 -70.1228
rfingers 7.12502
rthumb -169.504 -40.4048
lclavicle 8.90555e-014 -3.81667e-014
lhumerus -40.6131 24.7251 57.2648
lradius 27.0371
lwrist -33.1568
lhand -14.0809 -31.3785
lfingers 7.12502
lthumb 12.0511 -1.74553
rfemur -19.8553 3.95189 12.4576
rtibia 76.3984
rfoot -11.2535 -15.9488
rtoes -4.79253
lfemur 1.97442 2.2995 -40.577
ltibia 22.6543
lfoot -21.5269 9.28071
ltoes -20.0552
1533
root 10.7324 15.0398 -4.9827 -12.1391 -14.0517 370.625
lowerback 1.61781 -6.53264 -2.72275
upperback -6.10952 -8.86658 0.753951
thorax -6.74687 -4.21742 2.90769
lowerneck -4.70562 12.9724 3.32865
upperneck 27.9397 17.9887 -0.110553
head 9.97416 8.68981 1.21906
rclavicle -2.62396e-013 -7.79236e-014
rhumerus -52.6018 -14.1118 -51.1219
rradius 31.4165
rwrist 8.29474
rhand 164.919 -69.9578
rfingers 7.12502
rthumb -168.914 -40.2706
lclavicle -2.62396e-013 -7.79236e-014
lhumerus -40.6497 24.1054 57.9024
lradius 27.8148
lwrist -32.0513
lhand -16.3493 -32.69
lfingers 7.12502
lthumb 9.86314 -2.94098
rfemur -20.7776 4.40246 13.0313
rtibia 74.6742
rfoot -12.3185 -17.2614
rtoes -4.37058
lfemur 2.53904 1.68027 -40.6746
ltibia 22.7761
lfoot -22.2823 9.35414
ltoes -21.0726
1534
root 10.7209 15.0327 -4.83722 -11.944 -13.4835 370.277
lowerback 1.73768 -6.66532 -2.82701
upperback -6.21522 -9.05043 0.853379
thorax -6.88662 -4.29371 3.09994
lowerneck -4.62833 12.7953 3.11329
upperneck 27.9293 17.6985 0.122405
head 9.90218 8.56255 1.28374
rclavicle -1.63799e-013 -1.43125e-014
rhumerus -53.9591 -13.9574 -49.5136
rradius 31.2305
rwrist 8.24664
rhand 162.453 -67.9842
rfingers 7.12502
rthumb -171.292 -38.1838
lclavicle -1.63799e-013 -1.43125e-014
lhumerus -40.3674 23.2886 58.6205
lradius 28.2664
lwrist -31.0241
lhand -17.6349 -33.9348
lfingers 7.12502
lthumb 8.62267 -4.13091
rfemur -21.4817 4.95896 13.8196
rtibia 72.6498
rfoot -13.4518 -18.6215
rtoes -3.69065
lfemur 3.21719 0.897219 -40.6081
ltibia 22.7593
lfoot -23.0287 9.61923
ltoes -23.3729
1535
root 10.7061 15.0331 -4.6927 -11.7481 -12.8006 370.003
lowerback 1.70954 -6.80145 -3.04415
upperback -6.18179 -9.24178 0.8529
thorax -6.78947 -4.37968 3.21749
lowerneck -4.74899 12.4935 3.11284
upperneck 27.7711 17.2721 0.0493657
head 9.86463 8.35676 1.21672
rclavicle 5.88403e-014 -9.54166e-015
rhumerus -55.3928 -15.2707 -46.622
rradius 30.7146
rwrist 11.5014
rhand 161.241 -68.2152
rfingers 7.12502
rthumb -172.462 -38.3695
lclavicle 5.88403e-014 -9.54166e-015
lhumerus -39.4785 22.4562 59.3863
lradius 28.2744
lwrist -30.3303
lhand -18.8986 -35.2547
lfingers 7.12502
lthumb 7.40302 -5.40427
rfemur -22.0339 5.51224 14.5112
rtibia 70.3343
rfoot -14.5933 -20.1212
rtoes -2.48677
lfemur 3.88993 0.152411 -40.589
ltibia 22.7284
lfoot -23.7223 9.64066
ltoes -24.4126
1536
root 10.6915 15.047 -4.55314 -11.2926 -12.0273 369.647
lowerback 1.5015 -7.00791 -3.27755
upperback -6.1903 -9.51775 0.921585
thorax -6.61261 -4.50821 3.39528
lowerneck -4.89252 12.2448 3.17796
upperneck 27.5564 16.8972 0.019651
head 9.81381 8.18726 1.15947
rclavicle -8.0309e-014 -2.70347e-014
rhumerus -56.6254 -16.3165 -44.1525
rradius 30.3546
rwrist 12.9929
rhand 161.76 -68.5876
rfingers 7.12502
rthumb -171.961 -38.7604
lclavicle -8.0309e-014 -2.70347e-014
lhumerus -38.7655 21.4561 60.2191
lradius 28.5834
lwrist -29.6512
lhand -19.8678 -36.3863
lfingers 7.12502
lthumb 6.46746 -6.50505
rfemur -22.7346 5.87962 15.2199
rtibia 67.8378
rfoot -15.7204 -21.6748
rtoes -0.5091
lfemur 4.47189 -0.619651 -40.4441
ltibia 22.4058
lfoot -24.0944 9.42893
ltoes -24.8687
1537
root 10.6763 15.0668 -4.41846 -10.6965 -11.3222 368.983
lowerback 1.42417 -7.20566 -3.25521
upperback -6.36768 -9.77259 1.10057
thorax -6.71283 -4.62545 3.58301
lowerneck -4.66395 12.0302 3.08182
upperneck 27.2418 16.5018 0.331702
head 9.60909 8.041 1.19921
rclavicle -4.77083e-015 -3.49861e-014
rhumerus -57.951 -16.3484 -42.3596
rradius 30.3433
rwrist 12.2472
rhand 161.578 -68.2164
rfingers 7.12502
rthumb -172.137 -38.3826
lclavicle -4.77083e-015 -3.49861e-014
lhumerus -38.3898 20.6704 60.8142
lradius 28.8679
lwrist -29.3526
lhand -20.3812 -37.6178
lfingers 7.12502
lthumb 5.97183 -7.72201
rfemur -23.4471 6.20428 16.2415
rtibia 65.1362
rfoot -16.6878 -23.0608
rtoes 1.1381
lfemur 4.99628 -1.49844 -39.9604
ltibia 21.9534
lfoot -24.2449 9.24471
ltoes -26.0555
1538
root 10.6572 15.0755 -4.25926 -10.8817 -10.396 369.26
lowerback 1.55843 -7.38859 -4.16639
upperback -6.33323 -10.0782 0.94399
thorax -6.60903 -4.73475 3.92977
lowerneck -4.40802 11.7117 2.8498
upperneck 26.8628 15.9856 0.607949
head 9.36826 7.82103 1.23067
rclavicle -3.10104e-014 -1.59028e-015
rhumerus -59.2841 -15.5575 -41.1544
rradius 30.7746
rwrist 10.8003
rhand 161.71 -68.1601
rfingers 7.12502
rthumb -172.01 -38.3312
lclavicle -3.10104e-014 -1.59028e-015
lhumerus -37.933 19.9116 61.3987
lradius 29.0262
lwrist -29.0056
lhand -20.6408 -39.0788
lfingers 7.12502
lthumb 5.7212 -9.17599
rfemur -23.3014 6.3022 16.1662
rtibia 62.4127
rfoot -17.6241 -24.0883
rtoes 1.8928
lfemur 6.36113 -2.17572 -40.5354
ltibia 21.2406
lfoot -24.5918 9.03774
ltoes -27.253
1539
root 10.6403 15.0935 -4.12195 -10.4897 -9.42166 368.936
lowerback 1.62636 -7.64495 -4.54267
upperback -6.42951 -10.4429 1.02582
thorax -6.64134 -4.88938 4.24294
lowerneck -4.57547 11.3825 2.52739
upperneck 26.8041 15.4657 0.937408
head 9.3101 7.57995 1.33943
rclavicle 5.725e-014 -9.54166e-015
rhumerus -60.3969 -15.1307 -39.7953
rradius 31.1557
rwrist 9.27358
rhand 161.398 -67.8379
rfingers 7.12502
rthumb -172.311 -37.9977
lclavicle 5.725e-014 -9.54166e-015
lhumerus -37.4449 18.7918 62.1927
lradius 29.3976
lwrist -28.2177
lhand -20.9293 -40.461
lfingers 7.12502
lthumb 5.44265 -10.5509
rfemur -23.6566 6.35781 16.7067
rtibia 59.5076
rfoot -18.1967 -25.4524
rtoes 2.31855
lfemur 7.13718 -3.04579 -40.4267
ltibia 20.5064
lfoot -24.8344 8.5115
ltoes -27.1292
1540
root 10.625 15.1097 -3.97917 -10.2421 -8.33812 368.701
lowerback 1.73311 -7.87406 -4.96505
upperback -6.4839 -10.7806 1.01416
thorax -6.65861 -5.03133 4.48454
lowerneck -4.79383 11.1699 2.43729
upperneck 26.677 15.0514 1.38753
head 9.25164 7.4252 1.46654
rclavicle -7.63333e-014 -4.92986e-014
rhumerus -61.6312 -15.3555 -37.7789
rradius 31.4317
rwrist 7.84681
rhand 160.675 -67.6769
rfingers 7.12502
rthumb -173.009 -37.8124
lclavicle -7.63333e-014 -4.92986e-014
lhumerus -36.7176 17.7997 62.9042
lradius 29.3348
lwrist -28.0655
lhand -21.1986 -40.9799
lfingers 7.12502
lthumb 5.18261 -11.0633
rfemur -23.7962 6.21196 17.1215
rtibia 56.5778
rfoot -18.7191 -26.7467
rtoes 2.83111
lfemur 8.12163 -3.85501 -40.4155
ltibia 19.7219
lfoot -24.9093 7.82618
ltoes -25.7133
1541
root 10.6077 15.1321 -3.84234 -9.80445 -7.07656 368.345
lowerback 1.7855 -8.13937 -5.31942
upperback -6.57126 -11.1613 1.01492
thorax -6.68134 -5.19724 4.69812
lowerneck -4.56617 10.7808 2.33199
upperneck 25.8573 14.4672 1.45975
head 8.90056 7.16741 1.39718
rclavicle -5.12864e-014 -2.22639e-014
rhumerus -62.9014 -15.4609 -35.9023
rradius 31.8724
rwrist 5.61667
rhand 159.564 -67.3525
rfingers 7.12502
rthumb -174.081 -37.4552
lclavicle -5.12864e-014 -2.22639e-014
lhumerus -35.6987 16.8978 63.5966
lradius 28.9937
lwrist -28.2413
lhand -20.4525 -40.4301
lfingers 7.12502
lthumb 5.90295 -10.5323
rfemur -24.0344 5.86528 17.6093
rtibia 53.598
rfoot -18.9613 -27.7828
rtoes 4.16726
lfemur 8.8116 -4.77687 -40.2269
ltibia 19.1932
lfoot -24.9101 7.11548
ltoes -24.2139
